<svg
version="1.1"
xmlns="http://www.w3.org/2000/svg"
xmlns:xlink="http://www.w3.org/1999/xlink"
height="160" width="160"
>

<!-- código para o desenho -->

    <polygon points="20,10 10,80 40,80" style="fill:grey;stroke:black;stroke-width:2" />
    <polygon points="90,10 80,80 110,80" style="fill:grey;stroke:black;stroke-width:2" />
    <circle cx="60" cy="100" r="55" style="fill:grey;stroke:black;stroke-width:2" />

    <polygon points="55,100 40,90 70,90" style="fill:red;stroke:black;stroke-width:2" />

    <polyline points="30,85 40,90 " style="fill:red;stroke:black;stroke-width:2" />
    <polyline points="30,100 45,95 " style="fill:red;stroke:black;stroke-width:2" />


    <polyline points="70,90 80,85 " style="fill:red;stroke:black;stroke-width:2" />
    <polyline points="60,95 80,100 " style="fill:red;stroke:black;stroke-width:2" />

        
    <circle cx="35" cy="70" r="5" style="fill:black" />
    <circle cx="75" cy="70" r="5" style="fill:black" />


    <polyline points="40,125 75,125 " style="fill:red;stroke:black;stroke-width:2" />

    <!-- 
    <circle cx="75" cy="75" r="50" fill="#0562dc" />

    <ellipse cx="100" cy="60" rx="100" ry="50" fill="#0562DC" />

    <line x1="20" y1="10" x2="180" y2="60" stroke="#0562DC" stroke-width="4"/>

    <polyline points="0,40 40,40 40,80 80,80 80,120 120,120 120,160" fill="white" stroke="#0562DC" stroke-width="4" />

    <polygon points="50,5 100,5 125,30 125,80 100,105 50,105 25,80 25,30" fill="#0562DC" stroke="#000" stroke-width="4"/>

    https://www.w3schools.com/graphics/svg_circle.asp
    https://willianjusten.com.br/a-estrutura-do-svg/

    -->
</svg>



